#!OML:ASF H:\Dans Jumps\Project 1\Capture day 1\Session 1\subject.ASF
:FULLY-SPECIFIED
:DEGREES
436
root 0.307723 17.5159 -3.46689 8.954 0.629918 -1.17556
lowerback 4.21502 -0.286477 -0.655427
upperback 4.08603 -0.420165 1.99228
thorax 1.85684 -0.254725 2.4261
lowerneck -13.4874 -0.0692536 -1.62521
upperneck 31.9697 0.0674634 0.834284
head 12.8988 -0.056535 0.616999
rclavicle 4.27387e-015 -3.57812e-015
rhumerus -28.4526 -20.9372 -75.8411
rradius 19.5952
rwrist 43.0328
rhand -18.5671 -26.0012
rfingers 7.12502
rthumb 7.72295 -55.8402
lclavicle 4.27387e-015 -3.57812e-015
lhumerus -26.5362 2.21499 87.3861
lradius 13.7182
lwrist 4.44942
lhand -26.1583 -4.54159
lfingers 7.12502
lthumb 0.392831 25.4378
rfemur -25.7379 -1.43278 19.5307
rtibia 31.6652
rfoot -13.4006 -1.79625
rtoes 13.6288
lfemur -24.5697 6.36061 -17.8208
ltibia 29.0673
lfoot -10.7024 3.47776
ltoes -0.277696
437
root 0.304345 17.5229 -3.44996 8.98749 0.51162 -1.24065
lowerback 4.16121 -0.248948 -0.637734
upperback 4.07908 -0.37014 2.00175
thorax 1.87726 -0.229568 2.42438
lowerneck -13.4855 -0.0573016 -1.61368
upperneck 32.0584 0.0763662 0.849199
head 12.9355 -0.0498027 0.622616
rclavicle 1.78906e-015 1.11319e-014
rhumerus -28.4691 -21.1487 -75.748
rradius 19.557
rwrist 43.0818
rhand -18.5667 -26.013
rfingers 7.12502
rthumb 7.72341 -55.852
lclavicle 1.78906e-015 1.11319e-014
lhumerus -26.5288 2.43511 87.252
lradius 13.7153
lwrist 4.28599
lhand -26.241 -4.54995
lfingers 7.12502
lthumb 0.312996 25.4296
rfemur -25.5889 -1.37803 19.607
rtibia 31.4074
rfoot -13.3635 -1.64825
rtoes 13.7801
lfemur -24.458 6.41347 -17.7374
ltibia 28.9403
lfoot -10.6372 3.56912
ltoes -0.221227
438
root 0.300688 17.5299 -3.43332 9.01478 0.400047 -1.29338
lowerback 4.11422 -0.214853 -0.632131
upperback 4.06868 -0.324847 2.00569
thorax 1.89059 -0.206907 2.42397
lowerneck -13.4806 -0.0463478 -1.59991
upperneck 32.143 0.0826855 0.86532
head 12.9699 -0.0437698 0.627906
rclavicle 7.85199e-015 -3.57812e-015
rhumerus -28.4854 -21.3029 -75.6919
rradius 19.5519
rwrist 43.0394
rhand -18.5838 -26.0358
rfingers 7.12502
rthumb 7.70687 -55.8754
lclavicle 7.85199e-015 -3.57812e-015
lhumerus -26.5454 2.60288 87.1438
lradius 13.7528
lwrist 4.27144
lhand -26.3162 -4.6081
lfingers 7.12502
lthumb 0.240351 25.3715
rfemur -25.4353 -1.33195 19.6722
rtibia 31.1556
rfoot -13.3302 -1.50938
rtoes 13.9199
lfemur -24.3393 6.47625 -17.6674
ltibia 28.8086
lfoot -10.5746 3.63538
ltoes -0.151616
439
root 0.296874 17.5368 -3.41692 9.038 0.294889 -1.34106
lowerback 4.07009 -0.184113 -0.630007
upperback 4.0564 -0.284015 2.00607
thorax 1.9006 -0.186468 2.42202
lowerneck -13.4765 -0.0362852 -1.5879
upperneck 32.2236 0.0865412 0.886357
head 13.0029 -0.0383784 0.63504
rclavicle 2.18663e-015 4.77083e-015
rhumerus -28.4965 -21.3804 -75.6802
rradius 19.5822
rwrist 42.8971
rhand -18.6241 -26.0759
rfingers 7.12502
rthumb 7.668 -55.9169
lclavicle 2.18663e-015 4.77083e-015
lhumerus -26.576 2.71071 87.0642
lradius 13.8188
lwrist 4.39982
lhand -26.3885 -4.70798
lfingers 7.12502
lthumb 0.17052 25.2717
rfemur -25.2794 -1.29517 19.7341
rtibia 30.9094
rfoot -13.302 -1.37682
rtoes 14.0529
lfemur -24.2155 6.54071 -17.6022
ltibia 28.672
lfoot -10.5149 3.6881
ltoes -0.0803336
440
root 0.293106 17.5436 -3.40077 9.05817 0.198614 -1.38708
lowerback 4.02672 -0.15669 -0.623371
upperback 4.04376 -0.247423 2.00219
thorax 1.90997 -0.167964 2.41327
lowerneck -13.4802 -0.0281575 -1.57603
upperneck 32.3028 0.0861773 0.912044
head 13.0372 -0.034233 0.643411
rclavicle -3.08116e-015 1.43125e-014
rhumerus -28.4971 -21.3985 -75.7094
rradius 19.6379
rwrist 42.6858
rhand -18.6887 -26.1184
rfingers 7.12502
rthumb 7.60567 -55.9616
lclavicle -3.08116e-015 1.43125e-014
lhumerus -26.6093 2.76972 87.0071
lradius 13.9021
lwrist 4.63626
lhand -26.4311 -4.79888
lfingers 7.12502
lthumb 0.129387 25.1808
rfemur -25.1221 -1.27088 19.7953
rtibia 30.6687
rfoot -13.2781 -1.24498
rtoes 14.1824
lfemur -24.0885 6.59872 -17.5385
ltibia 28.5332
lfoot -10.4591 3.73727
ltoes -0.00964655
441
root 0.289586 17.5501 -3.38497 9.07707 0.113362 -1.43175
lowerback 3.98529 -0.135448 -0.613071
upperback 4.03137 -0.218944 1.99713
thorax 1.91887 -0.153404 2.40146
lowerneck -13.492 -0.0211331 -1.569
upperneck 32.3763 0.0844474 0.941259
head 13.0708 -0.030792 0.653799
rclavicle 5.96354e-015 3.97569e-016
rhumerus -28.4803 -21.3485 -75.7795
rradius 19.7178
rwrist 42.4122
rhand -18.7733 -26.1612
rfingers 7.12502
rthumb 7.52401 -56.0074
lclavicle 5.96354e-015 3.97569e-016
lhumerus -26.6369 2.78378 86.9752
lradius 13.9921
lwrist 4.95007
lhand -26.4442 -4.86357
lfingers 7.12502
lthumb 0.116743 25.1161
rfemur -24.9657 -1.26214 19.8554
rtibia 30.4326
rfoot -13.2555 -1.10879
rtoes 14.3121
lfemur -23.9622 6.64292 -17.4764
ltibia 28.3953
lfoot -10.4069 3.78908
ltoes 0.0524628
442
root 0.286396 17.5565 -3.36958 9.09642 0.04002 -1.47699
lowerback 3.94426 -0.120218 -0.595373
upperback 4.01933 -0.198284 1.99102
thorax 1.92824 -0.142562 2.38461
lowerneck -13.5071 -0.013911 -1.56745
upperneck 32.4409 0.0832852 0.974301
head 13.1014 -0.0272357 0.666693
rclavicle 3.67752e-015 1.98785e-015
rhumerus -28.4454 -21.2416 -75.8854
rradius 19.8166
rwrist 42.0952
rhand -18.868 -26.2015
rfingers 7.12502
rthumb 7.43258 -56.051
lclavicle 3.67752e-015 1.98785e-015
lhumerus -26.6507 2.75717 86.9655
lradius 14.0806
lwrist 5.30561
lhand -26.4261 -4.90377
lfingers 7.12502
lthumb 0.134178 25.0759
rfemur -24.8124 -1.2673 19.9156
rtibia 30.2014
rfoot -13.2337 -0.968667
rtoes 14.4343
lfemur -23.8395 6.67151 -17.4143
ltibia 28.2586
lfoot -10.3573 3.84504
ltoes 0.113017
443
root 0.283646 17.5628 -3.35441 9.11703 -0.0196968 -1.52459
lowerback 3.90166 -0.11211 -0.569047
upperback 4.00707 -0.186935 1.9865
thorax 1.93869 -0.13619 2.36477
lowerneck -13.526 -0.00567548 -1.57125
upperneck 32.498 0.0856307 1.00585
head 13.1296 -0.0229697 0.680445
rclavicle 2.78299e-015 -1.90833e-014
rhumerus -28.3939 -21.0755 -76.0221
rradius 19.9315
rwrist 41.7483
rhand -18.9587 -26.2388
rfingers 7.12502
rthumb 7.34497 -56.0913
lclavicle 2.78299e-015 -1.90833e-014
lhumerus -26.6545 2.70546 86.9754
lradius 14.1649
lwrist 5.66048
lhand -26.3804 -4.91394
lfingers 7.12502
lthumb 0.178376 25.0657
rfemur -24.6631 -1.28526 19.9774
rtibia 29.9763
rfoot -13.211 -0.826866
rtoes 14.5538
lfemur -23.7203 6.68761 -17.3514
ltibia 28.1218
lfoot -10.3097 3.90333
ltoes 0.171393
